<svg xmlns="http://www.w3.org/2000/svg" xmlns:xlink="http://www.w3.org/1999/xlink" width="1342" height="1814" contentStyleType="text/css" preserveAspectRatio="none" style="width:1342px;height:1814px;background:#fff" version="1.1" viewBox="0 0 1342 1814" zoomAndPan="magnify"><g><rect id="_title" width="168" height="26.488" y="5" fill="none" style="stroke:none;stroke-width:1" x="580.25"/><text x="585.25" y="23.535" fill="#000" font-family="sans-serif" font-size="14" font-weight="bold" lengthAdjust="spacing" textLength="158">Sidechain deployment</text><g id="cluster_Canonical"><path fill="none" d="M382.5,43.4883 L453.5,43.4883 A3.75,3.75 0 0 1 456,45.9883 L463,65.9766 L1170.5,65.9766 A2.5,2.5 0 0 1 1173,68.4766 L1173,643.9183 A2.5,2.5 0 0 1 1170.5,646.4183 L382.5,646.4183 A2.5,2.5 0 0 1 380,643.9183 L380,45.9883 A2.5,2.5 0 0 1 382.5,43.4883" style="stroke:#000;stroke-width:1.5"/><line style="stroke:#000;stroke-width:1.5" x1="380" x2="463" y1="65.977" y2="65.977"/><text x="384" y="59.023" fill="#000" font-family="sans-serif" font-size="14" font-weight="bold" lengthAdjust="spacing" textLength="70">Canonical</text></g><g id="cluster_c_lzEndpoint"><rect width="198" height="144.31" x="538" y="460.798" fill="silver" rx="2.5" ry="2.5" style="stroke:#181818;stroke-width:1"/><rect width="15" height="10" x="716" fill="silver" style="stroke:#181818;stroke-width:1" y="465.798"/><rect width="4" height="2" x="714" fill="silver" style="stroke:#181818;stroke-width:1" y="467.798"/><rect width="4" height="2" x="714" fill="silver" style="stroke:#181818;stroke-width:1" y="471.798"/><text x="596.5" y="487.333" fill="#000" font-family="sans-serif" font-size="14" font-style="italic" lengthAdjust="spacing" textLength="81">«LayerZero»</text><text x="570" y="503.822" fill="#000" font-family="sans-serif" font-size="14" font-weight="bold" lengthAdjust="spacing" textLength="134">LayerZeroEndpoint</text></g><g id="cluster_LayerZero"><path fill="silver" d="M533.5,670.4183 L604.5,670.4183 A3.75,3.75 0 0 1 607,672.9183 L614,692.9066 L690.5,692.9066 A2.5,2.5 0 0 1 693,695.4066 L693,957.8483 A2.5,2.5 0 0 1 690.5,960.3483 L533.5,960.3483 A2.5,2.5 0 0 1 531,957.8483 L531,672.9183 A2.5,2.5 0 0 1 533.5,670.4183" style="stroke:#000;stroke-width:1.5"/><line style="stroke:#000;stroke-width:1.5" x1="531" x2="614" y1="692.907" y2="692.907"/><text x="535" y="685.953" fill="#000" font-family="sans-serif" font-size="14" font-weight="bold" lengthAdjust="spacing" textLength="70">LayerZero</text></g><g id="cluster_lz_Relayer"><rect width="108" height="210.93" x="547" y="719.418" fill="none" rx="2.5" ry="2.5" style="stroke:#181818;stroke-width:1"/><rect width="15" height="10" x="635" fill="none" style="stroke:#181818;stroke-width:1" y="724.418"/><rect width="4" height="2" x="633" fill="none" style="stroke:#181818;stroke-width:1" y="726.418"/><rect width="4" height="2" x="633" fill="none" style="stroke:#181818;stroke-width:1" y="730.418"/><text x="560.5" y="745.953" fill="#000" font-family="sans-serif" font-size="14" font-style="italic" lengthAdjust="spacing" textLength="81">«LayerZero»</text><text x="574.5" y="762.442" fill="#000" font-family="sans-serif" font-size="14" font-weight="bold" lengthAdjust="spacing" textLength="53">Relayer</text></g><g id="cluster_Sidechain"><path fill="none" d="M8.5,984.3483 L77.5,984.3483 A3.75,3.75 0 0 1 80,986.8483 L87,1006.8366 L1067.5,1006.8366 A2.5,2.5 0 0 1 1070,1009.3366 L1070,1805.1683 A2.5,2.5 0 0 1 1067.5,1807.6683 L8.5,1807.6683 A2.5,2.5 0 0 1 6,1805.1683 L6,986.8483 A2.5,2.5 0 0 1 8.5,984.3483" style="stroke:#000;stroke-width:1.5"/><line style="stroke:#000;stroke-width:1.5" x1="6" x2="87" y1="1006.837" y2="1006.837"/><text x="10" y="999.883" fill="#000" font-family="sans-serif" font-size="14" font-weight="bold" lengthAdjust="spacing" textLength="68">Sidechain</text></g><g id="cluster_s_lzEndpoint"><rect width="198" height="125" x="538" y="1041.348" fill="silver" rx="2.5" ry="2.5" style="stroke:#181818;stroke-width:1"/><rect width="15" height="10" x="716" fill="silver" style="stroke:#181818;stroke-width:1" y="1046.348"/><rect width="4" height="2" x="714" fill="silver" style="stroke:#181818;stroke-width:1" y="1048.348"/><rect width="4" height="2" x="714" fill="silver" style="stroke:#181818;stroke-width:1" y="1052.348"/><text x="596.5" y="1067.883" fill="#000" font-family="sans-serif" font-size="14" font-style="italic" lengthAdjust="spacing" textLength="81">«LayerZero»</text><text x="570" y="1084.372" fill="#000" font-family="sans-serif" font-size="14" font-weight="bold" lengthAdjust="spacing" textLength="134">LayerZeroEndpoint</text></g><g id="elem_c_ms_g"><rect width="77" height="50.621" x="852.5" fill="#F1F1F1" style="stroke:#181818;stroke-width:.5" y="579.798"/><text x="863.5" y="591.4" fill="#000" font-family="sans-serif" font-size="12" font-style="italic" lengthAdjust="spacing" textLength="55">«MultiSig»</text><text x="859.5" y="609.466" fill="#000" font-family="sans-serif" font-size="14" lengthAdjust="spacing" textLength="63">Guardian</text><line style="stroke:#181818;stroke-width:.5" x1="853.5" x2="928.5" y1="614.419" y2="614.419"/></g><g id="elem_c_ms_s"><rect width="65" height="50.621" x="752.5" fill="#F1F1F1" style="stroke:#181818;stroke-width:.5" y="579.798"/><text x="757.5" y="591.4" fill="#000" font-family="sans-serif" font-size="12" font-style="italic" lengthAdjust="spacing" textLength="55">«MultiSig»</text><text x="767.5" y="609.466" fill="#000" font-family="sans-serif" font-size="14" lengthAdjust="spacing" textLength="35">Sudo</text><line style="stroke:#181818;stroke-width:.5" x1="753.5" x2="816.5" y1="614.419" y2="614.419"/></g><g id="elem_c_bal"><rect width="77" height="50.621" x="496.5" fill="#87CEFA" style="stroke:#181818;stroke-width:.5" y="189.108"/><text x="504.5" y="200.71" fill="#000" font-family="sans-serif" font-size="12" font-style="italic" lengthAdjust="spacing" textLength="61">«Balancer»</text><text x="503.5" y="218.776" fill="#000" font-family="sans-serif" font-size="14" lengthAdjust="spacing" textLength="63">BalToken</text><line style="stroke:#181818;stroke-width:.5" x1="497.5" x2="572.5" y1="223.729" y2="223.729"/></g><g id="elem_c_booster"><rect width="66" height="50.621" x="396" fill="#F1F1F1" style="stroke:#181818;stroke-width:.5" y="189.108"/><text x="409.5" y="200.71" fill="#000" font-family="sans-serif" font-size="12" font-style="italic" lengthAdjust="spacing" textLength="39">«Aura»</text><text x="403" y="218.776" fill="#000" font-family="sans-serif" font-size="14" lengthAdjust="spacing" textLength="52">Booster</text><line style="stroke:#181818;stroke-width:.5" x1="397" x2="461" y1="223.729" y2="223.729"/></g><g id="elem_c_aura"><rect width="90" height="50.621" x="645" fill="#F1F1F1" style="stroke:#181818;stroke-width:.5" y="189.108"/><text x="670.5" y="200.71" fill="#000" font-family="sans-serif" font-size="12" font-style="italic" lengthAdjust="spacing" textLength="39">«Aura»</text><text x="652" y="218.776" fill="#000" font-family="sans-serif" font-size="14" lengthAdjust="spacing" textLength="76">AuraToken</text><line style="stroke:#181818;stroke-width:.5" x1="646" x2="734" y1="223.729" y2="223.729"/></g><g id="elem_c_auraBal"><rect width="67" height="50.621" x="681.5" fill="#F1F1F1" style="stroke:#181818;stroke-width:.5" y="78.488"/><text x="695.5" y="90.09" fill="#000" font-family="sans-serif" font-size="12" font-style="italic" lengthAdjust="spacing" textLength="39">«Aura»</text><text x="688.5" y="108.156" fill="#000" font-family="sans-serif" font-size="14" lengthAdjust="spacing" textLength="53">AuraBal</text><line style="stroke:#181818;stroke-width:.5" x1="682.5" x2="747.5" y1="113.109" y2="113.109"/></g><g id="elem_c_auraLocker"><rect width="92" height="50.621" x="1065" fill="#F1F1F1" style="stroke:#181818;stroke-width:.5" y="189.108"/><text x="1091.5" y="200.71" fill="#000" font-family="sans-serif" font-size="12" font-style="italic" lengthAdjust="spacing" textLength="39">«Aura»</text><text x="1072" y="218.776" fill="#000" font-family="sans-serif" font-size="14" lengthAdjust="spacing" textLength="78">AuraLocker</text><line style="stroke:#181818;stroke-width:.5" x1="1066" x2="1156" y1="223.729" y2="223.729"/></g><g id="elem_c_auraBalVault"><rect width="102" height="50.621" x="770" fill="#F1F1F1" style="stroke:#181818;stroke-width:.5" y="189.108"/><text x="801.5" y="200.71" fill="#000" font-family="sans-serif" font-size="12" font-style="italic" lengthAdjust="spacing" textLength="39">«Aura»</text><text x="777" y="218.776" fill="#000" font-family="sans-serif" font-size="14" lengthAdjust="spacing" textLength="88">AuraBalVault</text><line style="stroke:#181818;stroke-width:.5" x1="771" x2="871" y1="223.729" y2="223.729"/></g><g id="elem_c_auraBalStrategy"><rect width="123" height="50.621" x="907.5" fill="#F1F1F1" style="stroke:#181818;stroke-width:.5" y="189.108"/><text x="949.5" y="200.71" fill="#000" font-family="sans-serif" font-size="12" font-style="italic" lengthAdjust="spacing" textLength="39">«Aura»</text><text x="914.5" y="218.776" fill="#000" font-family="sans-serif" font-size="14" lengthAdjust="spacing" textLength="109">AuraBalStrategy</text><line style="stroke:#181818;stroke-width:.5" x1="908.5" x2="1029.5" y1="223.729" y2="223.729"/></g><g id="elem_c_auraProxyOFT"><rect width="151" height="125.063" x="815.5" fill="#F1F1F1" style="stroke:#181818;stroke-width:.5" y="299.728"/><text x="871.5" y="311.33" fill="#000" font-family="sans-serif" font-size="12" font-style="italic" lengthAdjust="spacing" textLength="39">«Aura»</text><text x="841" y="329.396" fill="#000" font-family="sans-serif" font-size="14" lengthAdjust="spacing" textLength="100">AuraProxyOFT</text><line style="stroke:#181818;stroke-width:.5" x1="816.5" x2="965.5" y1="334.349" y2="334.349"/><text x="821.5" y="351.885" fill="#000" font-family="sans-serif" font-size="14" lengthAdjust="spacing" textLength="139">address _lzEndpoint</text><text x="821.5" y="368.373" fill="#000" font-family="sans-serif" font-size="14" lengthAdjust="spacing" textLength="104">address _token</text><text x="821.5" y="384.861" fill="#000" font-family="sans-serif" font-size="14" lengthAdjust="spacing" textLength="107">address _locker</text><text x="821.5" y="401.349" fill="#000" font-family="sans-serif" font-size="14" lengthAdjust="spacing" textLength="127">address _guardian</text><text x="821.5" y="417.838" fill="#000" font-family="sans-serif" font-size="14" lengthAdjust="spacing" textLength="99">address _sudo</text></g><g id="elem_c_auraBalProxyOFT"><rect width="151" height="125.063" x="629.5" fill="#F1F1F1" style="stroke:#181818;stroke-width:.5" y="299.728"/><text x="685.5" y="311.33" fill="#000" font-family="sans-serif" font-size="12" font-style="italic" lengthAdjust="spacing" textLength="39">«Aura»</text><text x="645" y="329.396" fill="#000" font-family="sans-serif" font-size="14" lengthAdjust="spacing" textLength="120">AuraBalProxyOFT</text><line style="stroke:#181818;stroke-width:.5" x1="630.5" x2="779.5" y1="334.349" y2="334.349"/><text x="635.5" y="351.885" fill="#000" font-family="sans-serif" font-size="14" lengthAdjust="spacing" textLength="139">address _lzEndpoint</text><text x="635.5" y="368.373" fill="#000" font-family="sans-serif" font-size="14" lengthAdjust="spacing" textLength="104">address _token</text><text x="635.5" y="384.861" fill="#000" font-family="sans-serif" font-size="14" lengthAdjust="spacing" textLength="98">address _vault</text><text x="635.5" y="401.349" fill="#000" font-family="sans-serif" font-size="14" lengthAdjust="spacing" textLength="127">address _guardian</text><text x="635.5" y="417.838" fill="#000" font-family="sans-serif" font-size="14" lengthAdjust="spacing" textLength="99">address _sudo</text></g><g id="elem_c_l1Coordinator"><rect width="151" height="125.063" x="443.5" fill="#F1F1F1" style="stroke:#181818;stroke-width:.5" y="299.728"/><text x="499.5" y="311.33" fill="#000" font-family="sans-serif" font-size="12" font-style="italic" lengthAdjust="spacing" textLength="39">«Aura»</text><text x="469" y="329.396" fill="#000" font-family="sans-serif" font-size="14" lengthAdjust="spacing" textLength="100">L1Coordinator</text><line style="stroke:#181818;stroke-width:.5" x1="444.5" x2="593.5" y1="334.349" y2="334.349"/><text x="449.5" y="351.885" fill="#000" font-family="sans-serif" font-size="14" lengthAdjust="spacing" textLength="139">address _lzEndpoint</text><text x="449.5" y="368.373" fill="#000" font-family="sans-serif" font-size="14" lengthAdjust="spacing" textLength="118">address _booster</text><text x="449.5" y="384.861" fill="#000" font-family="sans-serif" font-size="14" lengthAdjust="spacing" textLength="129">address _balToken</text><text x="449.5" y="401.349" fill="#000" font-family="sans-serif" font-size="14" lengthAdjust="spacing" textLength="139">address _auraToken</text><text x="449.5" y="417.838" fill="#000" font-family="sans-serif" font-size="14" lengthAdjust="spacing" textLength="124">address _auraOFT</text></g><text x="554.5" y="624.643" fill="#000" font-family="sans-serif" font-size="14" lengthAdjust="spacing" textLength="165">cpo_canonicalLzChainId</text><rect width="12" height="12" x="631" fill="#F1F1F1" style="stroke:#181818;stroke-width:1.5" y="599.108"/><text x="557" y="698.465" fill="#000" font-family="sans-serif" font-size="14" lengthAdjust="spacing" textLength="160">cpi_canonicalLzChainId</text><rect width="12" height="12" x="631" fill="#F1F1F1" style="stroke:#181818;stroke-width:1.5" y="713.418"/><text x="554.5" y="949.883" fill="#000" font-family="sans-serif" font-size="14" lengthAdjust="spacing" textLength="165">cpo_sidechainLzChainId</text><rect width="12" height="12" x="631" fill="#F1F1F1" style="stroke:#181818;stroke-width:1.5" y="924.348"/><g id="elem_s_ms_g"><rect width="77" height="50.621" x="800.5" fill="#F1F1F1" style="stroke:#181818;stroke-width:.5" y="1601.448"/><text x="811.5" y="1613.05" fill="#000" font-family="sans-serif" font-size="12" font-style="italic" lengthAdjust="spacing" textLength="55">«MultiSig»</text><text x="807.5" y="1631.116" fill="#000" font-family="sans-serif" font-size="14" lengthAdjust="spacing" textLength="63">Guardian</text><line style="stroke:#181818;stroke-width:.5" x1="801.5" x2="876.5" y1="1636.069" y2="1636.069"/></g><g id="elem_s_ms_d"><rect width="65" height="50.621" x="695.5" fill="#F1F1F1" style="stroke:#181818;stroke-width:.5" y="1741.048"/><text x="700.5" y="1752.65" fill="#000" font-family="sans-serif" font-size="12" font-style="italic" lengthAdjust="spacing" textLength="55">«MultiSig»</text><text x="712.5" y="1770.716" fill="#000" font-family="sans-serif" font-size="14" lengthAdjust="spacing" textLength="31">DAO</text><line style="stroke:#181818;stroke-width:.5" x1="696.5" x2="759.5" y1="1775.669" y2="1775.669"/></g><g id="elem_s_bal"><rect width="77" height="50.621" x="377.5" fill="#87CEFA" style="stroke:#181818;stroke-width:.5" y="1741.048"/><text x="385.5" y="1752.65" fill="#000" font-family="sans-serif" font-size="12" font-style="italic" lengthAdjust="spacing" textLength="61">«Balancer»</text><text x="384.5" y="1770.716" fill="#000" font-family="sans-serif" font-size="14" lengthAdjust="spacing" textLength="63">BalToken</text><line style="stroke:#181818;stroke-width:.5" x1="378.5" x2="453.5" y1="1775.669" y2="1775.669"/></g><g id="elem_s_booster"><rect width="90" height="50.621" x="354" fill="#F1F1F1" style="stroke:#181818;stroke-width:.5" y="1432.878"/><text x="379.5" y="1444.48" fill="#000" font-family="sans-serif" font-size="12" font-style="italic" lengthAdjust="spacing" textLength="39">«Aura»</text><text x="361" y="1462.546" fill="#000" font-family="sans-serif" font-size="14" lengthAdjust="spacing" textLength="76">BoosterLite</text><line style="stroke:#181818;stroke-width:.5" x1="355" x2="443" y1="1467.499" y2="1467.499"/></g><g id="elem_s_boosterOwner"><rect width="135" height="50.621" x="479.5" fill="#F1F1F1" style="stroke:#181818;stroke-width:.5" y="1432.878"/><text x="527.5" y="1444.48" fill="#000" font-family="sans-serif" font-size="12" font-style="italic" lengthAdjust="spacing" textLength="39">«Aura»</text><text x="486.5" y="1462.546" fill="#000" font-family="sans-serif" font-size="14" lengthAdjust="spacing" textLength="121">BoosterOwnerLite</text><line style="stroke:#181818;stroke-width:.5" x1="480.5" x2="613.5" y1="1467.499" y2="1467.499"/></g><g id="elem_s_factories"><rect width="219" height="108.574" x="398.5" fill="#F1F1F1" style="stroke:#181818;stroke-width:.5" y="1572.468"/><text x="488.5" y="1584.07" fill="#000" font-family="sans-serif" font-size="12" font-style="italic" lengthAdjust="spacing" textLength="39">«Aura»</text><text x="477" y="1602.136" fill="#000" font-family="sans-serif" font-size="14" lengthAdjust="spacing" textLength="62">Factories</text><line style="stroke:#181818;stroke-width:.5" x1="399.5" x2="616.5" y1="1607.089" y2="1607.089"/><text x="404.5" y="1624.624" fill="#000" font-family="sans-serif" font-size="14" lengthAdjust="spacing" textLength="207">rewardFactory: RewardFactory</text><text x="404.5" y="1641.113" fill="#000" font-family="sans-serif" font-size="14" lengthAdjust="spacing" textLength="199">stashFactory: StashFactoryV2</text><text x="404.5" y="1657.601" fill="#000" font-family="sans-serif" font-size="14" lengthAdjust="spacing" textLength="190">tokenFactory: TokenFactory</text><text x="404.5" y="1674.089" fill="#000" font-family="sans-serif" font-size="14" lengthAdjust="spacing" textLength="187">proxyFactory: ProxyFactory</text></g><g id="elem_s_poolManager"><rect width="128" height="50.621" x="926" fill="#F1F1F1" style="stroke:#181818;stroke-width:.5" y="1432.878"/><text x="970.5" y="1444.48" fill="#000" font-family="sans-serif" font-size="12" font-style="italic" lengthAdjust="spacing" textLength="39">«Aura»</text><text x="933" y="1462.546" fill="#000" font-family="sans-serif" font-size="14" lengthAdjust="spacing" textLength="114">PoolManagerLite</text><line style="stroke:#181818;stroke-width:.5" x1="927" x2="1053" y1="1467.499" y2="1467.499"/></g><g id="elem_s_bdsender"><rect width="166" height="50.621" x="223" fill="#F1F1F1" style="stroke:#181818;stroke-width:.5" y="1247.808"/><text x="286.5" y="1259.41" fill="#000" font-family="sans-serif" font-size="12" font-style="italic" lengthAdjust="spacing" textLength="39">«Aura»</text><text x="230" y="1277.476" fill="#000" font-family="sans-serif" font-size="14" lengthAdjust="spacing" textLength="152">BridgeDelegateSender</text><line style="stroke:#181818;stroke-width:.5" x1="224" x2="388" y1="1282.429" y2="1282.429"/></g><g id="elem_s_voterProxy"><rect width="130" height="108.574" x="687" fill="#F1F1F1" style="stroke:#181818;stroke-width:.5" y="1403.898"/><text x="732.5" y="1415.5" fill="#000" font-family="sans-serif" font-size="12" font-style="italic" lengthAdjust="spacing" textLength="39">«Aura»</text><text x="702" y="1433.566" fill="#000" font-family="sans-serif" font-size="14" lengthAdjust="spacing" textLength="100">VoterProxyLite</text><line style="stroke:#181818;stroke-width:.5" x1="688" x2="816" y1="1438.519" y2="1438.519"/><text x="693" y="1456.054" fill="#000" font-family="sans-serif" font-size="14" lengthAdjust="spacing" textLength="95">address mintr</text><text x="693" y="1472.543" fill="#000" font-family="sans-serif" font-size="14" lengthAdjust="spacing" textLength="78">address crv</text><text x="693" y="1489.031" fill="#000" font-family="sans-serif" font-size="14" lengthAdjust="spacing" textLength="101">address owner</text><text x="693" y="1505.519" fill="#000" font-family="sans-serif" font-size="14" lengthAdjust="spacing" textLength="118">address operator</text></g><g id="elem_s_auraOFT"><rect width="195" height="92.086" x="654.5" fill="#F1F1F1" style="stroke:#181818;stroke-width:.5" y="1227.078"/><text x="732.5" y="1238.68" fill="#000" font-family="sans-serif" font-size="12" font-style="italic" lengthAdjust="spacing" textLength="39">«Aura»</text><text x="721.5" y="1256.746" fill="#000" font-family="sans-serif" font-size="14" lengthAdjust="spacing" textLength="61">AuraOFT</text><line style="stroke:#181818;stroke-width:.5" x1="655.5" x2="848.5" y1="1261.699" y2="1261.699"/><text x="660.5" y="1279.235" fill="#000" font-family="sans-serif" font-size="14" lengthAdjust="spacing" textLength="139">address _lzEndpoint</text><text x="660.5" y="1295.723" fill="#000" font-family="sans-serif" font-size="14" lengthAdjust="spacing" textLength="183">address _canonicalChainId</text><text x="660.5" y="1312.211" fill="#000" font-family="sans-serif" font-size="14" lengthAdjust="spacing" textLength="127">address _guardian</text></g><g id="elem_s_l2Coordinator"><rect width="195" height="141.551" x="424.5" fill="#F1F1F1" style="stroke:#181818;stroke-width:.5" y="1202.348"/><text x="502.5" y="1213.95" fill="#000" font-family="sans-serif" font-size="12" font-style="italic" lengthAdjust="spacing" textLength="39">«Aura»</text><text x="472" y="1232.016" fill="#000" font-family="sans-serif" font-size="14" lengthAdjust="spacing" textLength="100">L2Coordinator</text><line style="stroke:#181818;stroke-width:.5" x1="425.5" x2="618.5" y1="1236.969" y2="1236.969"/><text x="430.5" y="1254.505" fill="#000" font-family="sans-serif" font-size="14" lengthAdjust="spacing" textLength="139">address _lzEndpoint</text><text x="430.5" y="1270.993" fill="#000" font-family="sans-serif" font-size="14" lengthAdjust="spacing" textLength="124">address _auraOFT</text><text x="430.5" y="1287.481" fill="#000" font-family="sans-serif" font-size="14" lengthAdjust="spacing" textLength="183">address _canonicalChainId</text><text x="430.5" y="1303.969" fill="#000" font-family="sans-serif" font-size="14" lengthAdjust="spacing" textLength="118">address _booster</text><text x="430.5" y="1320.458" fill="#000" font-family="sans-serif" font-size="14" lengthAdjust="spacing" textLength="129">address _balToken</text><text x="430.5" y="1336.946" fill="#000" font-family="sans-serif" font-size="14" lengthAdjust="spacing" textLength="170">address _bridgeDelegate</text></g><g id="elem_s_auraBalOFT"><rect width="95" height="50.621" x="63.5" fill="#F1F1F1" style="stroke:#181818;stroke-width:.5" y="1247.808"/><text x="91.5" y="1259.41" fill="#000" font-family="sans-serif" font-size="12" font-style="italic" lengthAdjust="spacing" textLength="39">«Aura»</text><text x="70.5" y="1277.476" fill="#000" font-family="sans-serif" font-size="14" lengthAdjust="spacing" textLength="81">AuraBalOFT</text><line style="stroke:#181818;stroke-width:.5" x1="64.5" x2="157.5" y1="1282.429" y2="1282.429"/></g><g id="elem_s_auraBalVault"><rect width="102" height="50.621" x="180" fill="#F1F1F1" style="stroke:#181818;stroke-width:.5" y="1432.878"/><text x="211.5" y="1444.48" fill="#000" font-family="sans-serif" font-size="12" font-style="italic" lengthAdjust="spacing" textLength="39">«Aura»</text><text x="187" y="1462.546" fill="#000" font-family="sans-serif" font-size="14" lengthAdjust="spacing" textLength="88">AuraBalVault</text><line style="stroke:#181818;stroke-width:.5" x1="181" x2="281" y1="1467.499" y2="1467.499"/></g><g id="elem_s_auraBalStrategy"><rect width="123" height="50.621" x="21.5" fill="#F1F1F1" style="stroke:#181818;stroke-width:.5" y="1432.878"/><text x="63.5" y="1444.48" fill="#000" font-family="sans-serif" font-size="12" font-style="italic" lengthAdjust="spacing" textLength="39">«Aura»</text><text x="28.5" y="1462.546" fill="#000" font-family="sans-serif" font-size="14" lengthAdjust="spacing" textLength="109">AuraBalStrategy</text><line style="stroke:#181818;stroke-width:.5" x1="22.5" x2="143.5" y1="1467.499" y2="1467.499"/></g><g id="elem_s_virtualRewardFactory"><rect width="160" height="50.621" x="92" fill="#F1F1F1" style="stroke:#181818;stroke-width:.5" y="1601.448"/><text x="152.5" y="1613.05" fill="#000" font-family="sans-serif" font-size="12" font-style="italic" lengthAdjust="spacing" textLength="39">«Aura»</text><text x="99" y="1631.116" fill="#000" font-family="sans-serif" font-size="14" lengthAdjust="spacing" textLength="146">VirtualRewardFactory</text><line style="stroke:#181818;stroke-width:.5" x1="93" x2="251" y1="1636.069" y2="1636.069"/></g><text x="557" y="1020.395" fill="#000" font-family="sans-serif" font-size="14" lengthAdjust="spacing" textLength="160">cpi_sidechainLzChainId</text><rect width="12" height="12" x="631" fill="#F1F1F1" style="stroke:#181818;stroke-width:1.5" y="1035.348"/><g id="elem_GMN88"><path fill="#FEFFDD" d="M708.5,691.4483 L708.5,715.4183 L643.39,719.4183 L708.5,723.4183 L708.5,747.3799 A0,0 0 0 0 708.5,747.3799 L1335.5,747.3799 A0,0 0 0 0 1335.5,747.3799 L1335.5,701.4483 L1325.5,691.4483 L708.5,691.4483 A0,0 0 0 0 708.5,691.4483" style="stroke:#181818;stroke-width:.5"/><path fill="#FEFFDD" d="M1325.5,691.4483 L1325.5,701.4483 L1335.5,701.4483 L1325.5,691.4483" style="stroke:#181818;stroke-width:.5"/><text x="714.5" y="709.017" fill="#000" font-family="sans-serif" font-size="13" lengthAdjust="spacing" textLength="552">canonical.l1Coordinator.setTrustedRemote(sidechain.auraOFT, canonical.auraProxyOFT)</text><text x="714.5" y="724.327" fill="#000" font-family="sans-serif" font-size="13" lengthAdjust="spacing" textLength="552">canonical.auraProxyOFT.setTrustedRemote(sidechain.auraOFT, canonical.auraProxyOFT)</text><text x="714.5" y="739.638" fill="#000" font-family="sans-serif" font-size="13" lengthAdjust="spacing" textLength="606">canonical.auraBalProxyOFT.setTrustedRemote(sidechain.auraBalOFT, canonical.auraBalProxyOFT)</text></g><g id="elem_GMN91"><path fill="#FEFFDD" d="M709,902.3783 L709,926.3483 L643.24,930.3483 L709,934.3483 L709,958.3099 A0,0 0 0 0 709,958.3099 L1317,958.3099 A0,0 0 0 0 1317,958.3099 L1317,912.3783 L1307,902.3783 L709,902.3783 A0,0 0 0 0 709,902.3783" style="stroke:#181818;stroke-width:.5"/><path fill="#FEFFDD" d="M1307,902.3783 L1307,912.3783 L1317,912.3783 L1307,902.3783" style="stroke:#181818;stroke-width:.5"/><text x="715" y="919.947" fill="#000" font-family="sans-serif" font-size="13" lengthAdjust="spacing" textLength="587">sidechain.l2Coordinator,setTrustedRemote(canonical.l1Coordinator, sidechain.l2Coordinator)</text><text x="715" y="935.257" fill="#000" font-family="sans-serif" font-size="13" lengthAdjust="spacing" textLength="517">sidechain.auraOFT.setTrustedRemote(canonical.auraProxyOFT, sidechain.auraOFT)</text><text x="715" y="950.568" fill="#000" font-family="sans-serif" font-size="13" lengthAdjust="spacing" textLength="571">sidechain.auraBalOFT.setTrustedRemote(canonical.auraBalProxyOFT, sidechain.auraBalOFT)</text></g><g id="link_c_bal_c_l1Coordinator"><path id="c_bal-backto-c_l1Coordinator" fill="none" d="M531.63,246.1083 C529.94,261.5683 527.82,280.8883 525.8,299.2683" codeLine="54" style="stroke:#181818;stroke-width:1;stroke-dasharray:7,7"/><polygon fill="#181818" points="532.29 241.158 527.313 249.657 531.733 246.127 535.263 250.548 532.29 241.158" style="stroke:#181818;stroke-width:1"/></g><g id="link_c_aura_c_auraProxyOFT"><path id="c_aura-backto-c_auraProxyOFT" fill="none" d="M728.89,243.6383 C753.42,261.4383 785.92,285.0183 815.38,306.3883" codeLine="55" style="stroke:#181818;stroke-width:1;stroke-dasharray:7,7"/><polygon fill="#181818" points="725.1 240.158 730.056 248.669 729.154 243.085 734.739 242.183 725.1 240.158" style="stroke:#181818;stroke-width:1"/></g><g id="link_c_aura_c_auraBalProxyOFT"><path id="c_aura-backto-c_auraBalProxyOFT" fill="none" d="M693.16,246.1083 C694.75,261.5683 696.73,280.8883 698.62,299.2683" codeLine="56" style="stroke:#181818;stroke-width:1;stroke-dasharray:7,7"/><polygon fill="#181818" points="692.54 241.158 689.487 250.522 693.054 246.132 697.445 249.699 692.54 241.158" style="stroke:#181818;stroke-width:1"/></g><g id="link_c_aura_c_l1Coordinator"><path id="c_aura-backto-c_l1Coordinator" fill="none" d="M656.87,243.6783 C638.31,259.5083 614.38,279.9183 591.69,299.2683" codeLine="57" style="stroke:#181818;stroke-width:1;stroke-dasharray:7,7"/><polygon fill="#181818" points="659.99 240.158 650.547 242.958 656.187 243.404 655.741 249.043 659.99 240.158" style="stroke:#181818;stroke-width:1"/></g><g id="link_c_auraBal_c_auraBalProxyOFT"><path id="c_auraBal-backto-c_auraBalProxyOFT" fill="none" d="M676.53,130.6083 C658.13,145.3283 637.98,165.5383 628,189.1083 C612.42,225.8983 629.18,266.7183 650.99,299.3783" codeLine="58" style="stroke:#181818;stroke-width:1;stroke-dasharray:7,7"/><polygon fill="#181818" points="680.16 126.988 670.607 129.385 676.222 130.07 675.538 135.685 680.16 126.988" style="stroke:#181818;stroke-width:1"/></g><g id="link_c_auraBal_c_auraBalVault"><path id="c_auraBal-backto-c_auraBalVault" fill="none" d="M743.22,133.7183 C760.01,150.9183 781.07,172.5083 797.04,188.8683" codeLine="59" style="stroke:#181818;stroke-width:1;stroke-dasharray:7,7"/><polygon fill="#181818" points="740.05 130.448 743.455 139.69 743.535 134.034 749.192 134.113 740.05 130.448" style="stroke:#181818;stroke-width:1"/></g><g id="link_c_auraBalVault_c_auraBalStrategy"><path id="c_auraBalVault-to-c_auraBalStrategy" fill="none" d="M872.45,214.4183 C882.03,214.4183 891.61,214.4183 901.19,214.4183" codeLine="61" style="stroke:#181818;stroke-width:1;stroke-dasharray:7,7"/><polygon fill="#181818" points="906.15 214.418 897.15 210.418 901.15 214.418 897.15 218.418 906.15 214.418" style="stroke:#181818;stroke-width:1"/></g><g id="link_c_auraBalVault_c_auraBalProxyOFT"><path id="c_auraBalVault-c_auraBalProxyOFT" fill="none" d="M797.89,244.4783 C786.37,258.9683 771.92,277.1383 757.87,294.7883" codeLine="62" style="stroke:#181818;stroke-width:1;stroke-dasharray:7,7"/><polygon fill="#181818" points="754.31 298.268 763.044 293.716 757.423 294.356 756.783 288.735 754.31 298.268" style="stroke:#181818;stroke-width:1"/><polygon fill="#181818" points="801.32 241.158 792.586 245.711 798.207 245.071 798.847 250.691 801.32 241.158" style="stroke:#181818;stroke-width:1"/></g><g id="link_c_auraLocker_c_auraProxyOFT"><path id="c_auraLocker-backto-c_auraProxyOFT" fill="none" d="M1068.79,243.4083 C1039.98,262.5083 1001,288.3383 966.89,310.9583" codeLine="64" style="stroke:#181818;stroke-width:1;stroke-dasharray:7,7"/><polygon fill="#181818" points="1072.68 240.158 1062.966 241.784 1068.509 242.915 1067.377 248.458 1072.68 240.158" style="stroke:#181818;stroke-width:1"/></g><g id="link_c_booster_c_l1Coordinator"><path id="c_booster-backto-c_l1Coordinator" fill="none" d="M447.18,244.8783 C456.84,260.5383 469.1,280.3983 480.74,299.2683" codeLine="65" style="stroke:#181818;stroke-width:1;stroke-dasharray:7,7"/><polygon fill="#181818" points="444.27 241.158 445.595 250.918 446.897 245.413 452.402 246.715 444.27 241.158" style="stroke:#181818;stroke-width:1"/></g><g id="link_c_auraProxyOFT_c_lzEndpoint"><path id="c_auraProxyOFT-to-c_lzEndpoint" fill="none" d="M815.03,415.7283 C809.36,418.9583 803.65,422.0183 798,424.7983 C763.44,441.7783 750.85,436.3983 716,452.7983 C711.23,455.0408 706.3875,457.5033 701.5692,460.0928 C701.2681,460.2547 700.967,460.417 700.6661,460.5798 C700.5909,460.6205 700.5156,460.6613 700.4404,460.702" codeLine="67" style="stroke:#181818;stroke-width:1;stroke-dasharray:7,7"/><polygon fill="#181818" points="700.44 460.702 710.259 459.931 704.836 458.32 706.447 452.897 700.44 460.702" style="stroke:#181818;stroke-width:1"/></g><g id="link_c_auraProxyOFT_c_ms_s"><path id="c_auraProxyOFT-to-c_ms_s" fill="none" d="M863.7,425.2883 C842.65,473.1083 814.47,537.1483 798.17,574.1883" codeLine="68" style="stroke:#181818;stroke-width:1;stroke-dasharray:7,7"/><polygon fill="#181818" points="795.85 578.448 803.132 571.817 797.861 573.87 795.807 568.6 795.85 578.448" style="stroke:#181818;stroke-width:1"/></g><g id="link_c_auraProxyOFT_c_ms_g"><path id="c_auraProxyOFT-to-c_ms_g" fill="none" d="M891,425.2883 C891,472.9183 891,536.6183 891,573.7283" codeLine="69" style="stroke:#181818;stroke-width:1;stroke-dasharray:7,7"/><polygon fill="#181818" points="891 578.448 895 569.448 891 573.448 887 569.448 891 578.448" style="stroke:#181818;stroke-width:1"/></g><g id="link_c_l1Coordinator_c_lzEndpoint"><path id="c_l1Coordinator-to-c_lzEndpoint" fill="none" d="M571.79,425.0083 C581.115,435.9233 590.65,447.0808 599.4488,457.3745 C599.9987,458.0179 600.5457,458.6579 601.0897,459.2942 C601.3616,459.6124 601.6328,459.9296 601.9032,460.246 C602.0384,460.4041 602.1734,460.562 602.3082,460.7197" codeLine="71" style="stroke:#181818;stroke-width:1;stroke-dasharray:7,7"/><polygon fill="#181818" points="602.308 460.72 599.501 451.279 599.059 456.919 593.42 456.478 602.308 460.72" style="stroke:#181818;stroke-width:1"/></g><g id="link_c_l1Coordinator_c_auraProxyOFT"><path id="c_l1Coordinator-to-c_auraProxyOFT" fill="none" d="M578.96,299.4583 C594.18,287.3083 611.39,276.3083 629.5,269.7283 C692.58,246.8083 717.42,246.8083 780.5,269.7283 C796.77,275.6483 812.31,285.1183 826.34,295.7983" codeLine="72" style="stroke:#181818;stroke-width:1;stroke-dasharray:7,7"/><polygon fill="#181818" points="830.04 299.458 825.398 290.772 826.096 296.386 820.482 297.083 830.04 299.458" style="stroke:#181818;stroke-width:1"/></g><g id="link_c_auraBalProxyOFT_c_lzEndpoint"><path id="c_auraBalProxyOFT-to-c_lzEndpoint" fill="none" d="M674.58,425.0083 C669.205,435.9233 663.71,447.0808 658.6388,457.3745 C658.3218,458.0179 658.0065,458.6579 657.693,459.2942 C657.5362,459.6124 657.3799,459.9296 657.2241,460.246 C657.1462,460.4041 657.0684,460.562 656.9907,460.7197" codeLine="74" style="stroke:#181818;stroke-width:1;stroke-dasharray:7,7"/><polygon fill="#181818" points="656.991 460.72 664.557 454.414 659.201 456.235 657.38 450.879 656.991 460.72" style="stroke:#181818;stroke-width:1"/></g><g id="link_c_auraBalProxyOFT_c_auraProxyOFT"><path id="c_auraBalProxyOFT-to-c_auraProxyOFT" fill="none" d="M780.93,362.2683 C790.42,362.2683 799.92,362.2683 809.41,362.2683" codeLine="75" style="stroke:#181818;stroke-width:1;stroke-dasharray:7,7"/><polygon fill="#181818" points="814.32 362.268 805.32 358.268 809.32 362.268 805.32 366.268 814.32 362.268" style="stroke:#181818;stroke-width:1"/></g><g id="link_c_auraBalProxyOFT_c_ms_s"><path id="c_auraBalProxyOFT-to-c_ms_s" fill="none" d="M725.6,425.2883 C741.49,473.1083 762.76,537.1483 775.06,574.1883" codeLine="76" style="stroke:#181818;stroke-width:1;stroke-dasharray:7,7"/><polygon fill="#181818" points="776.81 578.448 777.75 568.644 775.225 573.706 770.163 571.181 776.81 578.448" style="stroke:#181818;stroke-width:1"/></g><g id="link_c_auraBalProxyOFT_c_ms_g"><path id="c_auraBalProxyOFT-to-c_ms_g" fill="none" d="M752.9,425.2883 C790.14,473.4983 840.1,538.1983 868.59,575.0883" codeLine="77" style="stroke:#181818;stroke-width:1;stroke-dasharray:7,7"/><polygon fill="#181818" points="871.96 578.448 869.623 568.881 868.903 574.491 863.292 573.772 871.96 578.448" style="stroke:#181818;stroke-width:1"/></g><g id="link_s_lzEndpoint_s_auraOFT"><path id="s_lzEndpoint-backto-s_auraOFT" fill="none" d="M668.9071,1166.4319 C668.9925,1166.5404 669.0779,1166.6491 669.1634,1166.7578 C669.5054,1167.1928 669.849,1167.6298 670.1939,1168.0685 C670.8839,1168.946 671.5796,1169.8308 672.2804,1170.7222 C675.0839,1174.2877 677.9706,1177.9592 680.9075,1181.6945 C692.655,1196.6358 705.205,1212.5983 716.44,1226.8883" codeLine="183" style="stroke:#181818;stroke-width:1;stroke-dasharray:7,7"/><polygon fill="#181818" points="668.907 1166.432 671.326 1175.979 671.998 1170.362 677.614 1171.034 668.907 1166.432" style="stroke:#181818;stroke-width:1"/></g><g id="link_s_lzEndpoint_s_l2Coordinator"><path id="s_lzEndpoint-backto-s_l2Coordinator" fill="none" d="M605.0187,1166.5263 C604.9569,1166.6049 604.895,1166.6836 604.833,1166.7624 C604.5853,1167.0775 604.3367,1167.3936 604.0874,1167.7107 C603.5887,1168.3449 603.087,1168.9829 602.5825,1169.6245 C594.51,1179.8908 585.71,1191.0833 576.99,1202.1783" codeLine="184" style="stroke:#181818;stroke-width:1;stroke-dasharray:7,7"/><polygon fill="#181818" points="605.019 1166.526 596.311 1171.129 601.928 1170.457 602.6 1176.073 605.019 1166.526" style="stroke:#181818;stroke-width:1"/></g><g id="link_s_auraOFT_s_ms_g"><path id="s_auraOFT-to-s_ms_g" fill="none" d="M789.74,1319.3683 C807.05,1342.9983 825.75,1373.3083 835,1403.8983 C854.91,1469.7583 848.98,1551.7083 843.58,1595.2383" codeLine="186" style="stroke:#181818;stroke-width:1;stroke-dasharray:7,7"/><polygon fill="#181818" points="842.83 1600.128 847.954 1591.717 843.473 1595.17 840.021 1590.689 842.83 1600.128" style="stroke:#181818;stroke-width:1"/></g><g id="link_s_auraOFT_s_ms_d"><path id="s_auraOFT-to-s_ms_d" fill="none" d="M793.26,1319.5983 C812.87,1343.2883 835.21,1373.5783 850,1403.8983 C877.35,1459.9783 927.7,1627.9083 895,1681.0483 C867.1,1726.3983 806.45,1748.2383 766.43,1758.0783" codeLine="187" style="stroke:#181818;stroke-width:1;stroke-dasharray:7,7"/><polygon fill="#181818" points="761.68 1759.448 771.361 1761.26 766.545 1758.293 769.512 1753.477 761.68 1759.448" style="stroke:#181818;stroke-width:1"/></g><g id="link_s_auraOFT_s_auraBalVault"><path id="s_auraOFT-backto-s_auraBalVault" fill="none" d="M680.78,1322.5283 C666.71,1330.5783 651.73,1338.1583 637,1343.8983 C510.3,1393.2483 465.57,1359.6283 337,1403.8983 C315.38,1411.3383 292.58,1422.3483 273.69,1432.4283" codeLine="188" style="stroke:#181818;stroke-width:1;stroke-dasharray:7,7"/><polygon fill="#181818" points="684.92 1319.548 675.13 1320.624 680.6 1322.066 679.158 1327.536 684.92 1319.548" style="stroke:#181818;stroke-width:1"/></g><g id="link_s_auraOFT_s_voterProxy"><path id="s_auraOFT-backto-s_voterProxy" fill="none" d="M752,1325.1583 C752,1349.6183 752,1378.9083 752,1403.6783" codeLine="189" style="stroke:#181818;stroke-width:1;stroke-dasharray:7,7"/><polygon fill="#181818" points="752 1320.378 748 1329.378 752 1325.378 756 1329.378 752 1320.378" style="stroke:#181818;stroke-width:1"/></g><g id="link_s_auraBalOFT_s_auraBalVault"><path id="s_auraBalOFT-backto-s_auraBalVault" fill="none" d="M130.25,1303.4783 C153.71,1339.2783 192.94,1399.1183 214.88,1432.5983" codeLine="191" style="stroke:#181818;stroke-width:1;stroke-dasharray:7,7"/><polygon fill="#181818" points="127.18 1299.808 128.744 1309.532 129.911 1303.997 135.446 1305.163 127.18 1299.808" style="stroke:#181818;stroke-width:1"/></g><g id="link_s_auraBalOFT_s_auraBalStrategy"><path id="s_auraBalOFT-backto-s_auraBalStrategy" fill="none" d="M106.37,1304.3683 C100.89,1340.2483 91.84,1399.3883 86.76,1432.5983" codeLine="192" style="stroke:#181818;stroke-width:1;stroke-dasharray:7,7"/><polygon fill="#181818" points="107.22 1299.808 101.903 1308.099 106.463 1304.751 109.811 1309.31 107.22 1299.808" style="stroke:#181818;stroke-width:1"/></g><g id="link_s_l2Coordinator_s_auraOFT"><path id="s_l2Coordinator-to-s_auraOFT" fill="none" d="M619.93,1273.1283 C629.4,1273.1283 638.87,1273.1283 648.34,1273.1283" codeLine="195" style="stroke:#181818;stroke-width:1;stroke-dasharray:7,7"/><polygon fill="#181818" points="653.24 1273.128 644.24 1269.128 648.24 1273.128 644.24 1277.128 653.24 1273.128" style="stroke:#181818;stroke-width:1"/></g><g id="link_s_l2Coordinator_s_booster"><path id="s_l2Coordinator-s_booster" fill="none" d="M471.6,1349.1283 C453.08,1376.6983 433.17,1406.3283 418.89,1427.5783" codeLine="196" style="stroke:#181818;stroke-width:1;stroke-dasharray:7,7"/><polygon fill="#181818" points="415.57 1431.518 423.911 1426.282 418.36 1427.369 417.273 1421.818 415.57 1431.518" style="stroke:#181818;stroke-width:1"/><polygon fill="#181818" points="474.8 1345.378 466.459 1350.615 472.01 1349.527 473.097 1355.079 474.8 1345.378" style="stroke:#181818;stroke-width:1"/></g><g id="link_s_bdsender_s_l2Coordinator"><path id="s_bdsender-backto-s_l2Coordinator" fill="none" d="M394.86,1273.1283 C404.62,1273.1283 414.39,1273.1283 424.15,1273.1283" codeLine="197" style="stroke:#181818;stroke-width:1;stroke-dasharray:7,7"/><polygon fill="#181818" points="390.11 1273.128 399.11 1277.128 395.11 1273.128 399.11 1269.128 390.11 1273.128" style="stroke:#181818;stroke-width:1"/></g><g id="link_s_l2Coordinator_s_bal"><path id="s_l2Coordinator-to-s_bal" fill="none" d="M424.12,1337.1183 C382.57,1364.8983 342.37,1393.5683 337,1403.8983 C308.59,1458.5383 314.36,1623.7683 337,1681.0483 C345.63,1702.8883 362.89,1722.3883 379.08,1737.1183" codeLine="198" style="stroke:#181818;stroke-width:1;stroke-dasharray:7,7"/><polygon fill="#181818" points="382.17 1739.758 378.103 1730.788 378.434 1736.436 372.787 1736.766 382.17 1739.758" style="stroke:#181818;stroke-width:1"/></g><g id="link_s_l2Coordinator_s_ms_d"><path id="s_l2Coordinator-to-s_ms_d" fill="none" d="M590.98,1344.0983 C606.22,1362.4283 621.06,1382.9583 632,1403.8983 C647.63,1433.8283 701.24,1653.7583 720.79,1735.1683" codeLine="199" style="stroke:#181818;stroke-width:1;stroke-dasharray:7,7"/><polygon fill="#181818" points="722.14 1739.788 723.918 1730.101 720.968 1734.928 716.141 1731.977 722.14 1739.788" style="stroke:#181818;stroke-width:1"/></g><g id="link_s_booster_s_bal"><path id="s_booster-to-s_bal" fill="none" d="M385.55,1483.9683 C364.85,1525.4983 329.86,1611.4283 353,1681.0483 C359.85,1701.6483 373.91,1721.2983 387.02,1736.4283" codeLine="203" style="stroke:#181818;stroke-width:1;stroke-dasharray:7,7"/><polygon fill="#181818" points="389.68 1739.568 386.708 1730.178 386.365 1735.825 380.719 1735.482 389.68 1739.568" style="stroke:#181818;stroke-width:1"/></g><g id="link_s_booster_s_voterProxy"><path id="s_booster-s_voterProxy" fill="none" d="M418.38,1427.6983 C432.64,1408.2983 453.95,1384.8283 479.5,1373.8983 C546.11,1345.4083 573.92,1350.5583 642.5,1373.8983 C659.58,1379.7083 676.08,1389.3883 690.86,1400.1483" codeLine="204" style="stroke:#181818;stroke-width:1;stroke-dasharray:7,7"/><polygon fill="#181818" points="694.39 1403.518 689.556 1394.938 690.378 1400.534 684.781 1401.357 694.39 1403.518" style="stroke:#181818;stroke-width:1"/><polygon fill="#181818" points="414.91 1431.538 423.421 1426.582 417.836 1427.484 416.934 1421.9 414.91 1431.538" style="stroke:#181818;stroke-width:1"/></g><g id="link_s_booster_s_poolManager"><path id="s_booster-s_poolManager" fill="none" d="M418.38,1427.6983 C432.64,1408.2983 453.95,1384.8283 479.5,1373.8983 C554.08,1341.9983 766.17,1352.8483 844.5,1373.8983 C884.34,1384.6083 924.54,1409.1783 952.55,1429.0483" codeLine="205" style="stroke:#181818;stroke-width:1;stroke-dasharray:7,7"/><polygon fill="#181818" points="956.29 1432.438 951.314 1423.939 952.229 1429.521 946.647 1430.436 956.29 1432.438" style="stroke:#181818;stroke-width:1"/><polygon fill="#181818" points="414.91 1431.538 423.421 1426.582 417.836 1427.484 416.934 1421.9 414.91 1431.538" style="stroke:#181818;stroke-width:1"/></g><g id="link_s_booster_s_factories"><path id="s_booster-s_factories" fill="none" d="M418.21,1488.5383 C432.43,1510.2683 452.27,1540.5983 469.69,1567.2183" codeLine="206" style="stroke:#181818;stroke-width:1;stroke-dasharray:7,7"/><polygon fill="#181818" points="472.91 1571.138 471.346 1561.414 470.18 1566.95 464.644 1565.783 472.91 1571.138" style="stroke:#181818;stroke-width:1"/><polygon fill="#181818" points="415.08 1484.768 416.667 1494.488 417.82 1488.95 423.358 1490.104 415.08 1484.768" style="stroke:#181818;stroke-width:1"/></g><g id="link_s_booster_s_boosterOwner"><path id="s_booster-s_boosterOwner" fill="none" d="M450.38,1458.1883 C458.05,1458.1883 465.72,1458.1883 473.39,1458.1883" codeLine="207" style="stroke:#181818;stroke-width:1;stroke-dasharray:7,7"/><polygon fill="#181818" points="478.26 1458.188 469.26 1454.188 473.26 1458.188 469.26 1462.188 478.26 1458.188" style="stroke:#181818;stroke-width:1"/><polygon fill="#181818" points="445.38 1458.188 454.38 1462.188 450.38 1458.188 454.38 1454.188 445.38 1458.188" style="stroke:#181818;stroke-width:1"/></g><g id="link_s_booster_s_ms_d"><path id="s_booster-to-s_ms_d" fill="none" d="M387.13,1483.9583 C367.69,1528.5783 335.5,1623.1683 381,1681.0483 C419.07,1729.4783 607.15,1753.5183 689.39,1761.8583" codeLine="208" style="stroke:#181818;stroke-width:1;stroke-dasharray:7,7"/><polygon fill="#181818" points="694.12 1762.428 685.564 1757.55 689.145 1761.929 684.766 1765.51 694.12 1762.428" style="stroke:#181818;stroke-width:1"/></g><g id="link_s_factories_s_bal"><path id="s_factories-to-s_bal" fill="none" d="M472.17,1681.3483 C459.73,1699.9583 446.25,1720.1183 435.61,1736.0283" codeLine="210" style="stroke:#181818;stroke-width:1;stroke-dasharray:7,7"/><polygon fill="#181818" points="432.41 1739.818 440.743 1734.568 435.193 1735.665 434.097 1730.115 432.41 1739.818" style="stroke:#181818;stroke-width:1"/></g><g id="link_s_poolManager_s_ms_d"><path id="s_poolManager-to-s_ms_d" fill="none" d="M988.99,1483.7383 C985.88,1528.4083 973.26,1623.6683 922,1681.0483 C880.91,1727.0483 810.23,1748.9783 766.47,1758.6183" codeLine="212" style="stroke:#181818;stroke-width:1;stroke-dasharray:7,7"/><polygon fill="#181818" points="761.75 1759.848 771.387 1761.881 766.64 1758.804 769.717 1754.058 761.75 1759.848" style="stroke:#181818;stroke-width:1"/></g><g id="link_s_boosterOwner_s_poolManager"><path id="s_boosterOwner-to-s_poolManager" fill="none" d="M578.18,1432.4583 C605.02,1412.0883 645.75,1385.2583 686.5,1373.8983 C754.15,1355.0483 776.68,1355.6783 844.5,1373.8983 C884.34,1384.6083 924.54,1409.1783 952.55,1429.0483" codeLine="214" style="stroke:#181818;stroke-width:1;stroke-dasharray:7,7"/><polygon fill="#181818" points="956.29 1432.438 951.314 1423.939 952.229 1429.521 946.647 1430.436 956.29 1432.438" style="stroke:#181818;stroke-width:1"/></g><g id="link_s_boosterOwner_s_factories"><path id="s_boosterOwner-to-s_factories" fill="none" d="M541.25,1483.7683 C536.16,1505.4883 528.54,1538.0383 521.87,1566.5083" codeLine="215" style="stroke:#181818;stroke-width:1;stroke-dasharray:7,7"/><polygon fill="#181818" points="520.55 1571.138 526.5 1563.29 521.692 1566.27 518.711 1561.463 520.55 1571.138" style="stroke:#181818;stroke-width:1"/></g><g id="link_s_boosterOwner_s_ms_d"><path id="s_boosterOwner-to-s_ms_d" fill="none" d="M569.22,1483.9583 C588.31,1506.0683 615.72,1539.8983 635,1572.4683 C661.79,1617.7183 658.94,1633.7883 682,1681.0483 C691.01,1699.5183 702.01,1719.7483 710.99,1735.7583" codeLine="216" style="stroke:#181818;stroke-width:1;stroke-dasharray:7,7"/><polygon fill="#181818" points="713.71 1739.578 712.773 1729.774 711.254 1735.223 705.805 1733.704 713.71 1739.578" style="stroke:#181818;stroke-width:1"/></g><g id="link_s_auraBalVault_s_virtualRewardFactory"><path id="s_auraBalVault-to-s_virtualRewardFactory" fill="none" d="M222.29,1483.7683 C211.75,1513.5383 193.99,1563.6683 182.64,1595.7083" codeLine="221" style="stroke:#181818;stroke-width:1;stroke-dasharray:7,7"/><polygon fill="#181818" points="180.74 1600.078 187.518 1592.932 182.411 1595.366 179.977 1590.259 180.74 1600.078" style="stroke:#181818;stroke-width:1"/></g><g id="link_s_auraBalVault_s_auraBalStrategy"><path id="s_auraBalVault-s_auraBalStrategy" fill="none" d="M173.69,1458.1883 C166.06,1458.1883 158.44,1458.1883 150.82,1458.1883" codeLine="222" style="stroke:#181818;stroke-width:1;stroke-dasharray:7,7"/><polygon fill="#181818" points="145.86 1458.188 154.86 1462.188 150.86 1458.188 154.86 1454.188 145.86 1458.188" style="stroke:#181818;stroke-width:1"/><polygon fill="#181818" points="178.52 1458.188 169.52 1454.188 173.52 1458.188 169.52 1462.188 178.52 1458.188" style="stroke:#181818;stroke-width:1"/></g><g id="link_s_voterProxy_s_ms_d"><path id="s_voterProxy-to-s_ms_d" fill="none" d="M748.97,1512.5783 C746.28,1557.5483 742.01,1623.5483 737,1681.0483 C735.44,1698.9383 733.32,1718.9283 731.53,1734.9483" codeLine="224" style="stroke:#181818;stroke-width:1;stroke-dasharray:7,7"/><polygon fill="#181818" points="730.89 1739.668 735.867 1731.17 731.447 1734.699 727.917 1730.279 730.89 1739.668" style="stroke:#181818;stroke-width:1"/></g><g id="link_s_voterProxy_s_bal"><path id="s_voterProxy-to-s_bal" fill="none" d="M735.97,1512.6883 C718.53,1562.4783 686.1,1635.6383 635,1681.0483 C584.81,1725.6483 508.48,1747.7683 460.47,1757.8583" codeLine="225" style="stroke:#181818;stroke-width:1;stroke-dasharray:7,7"/><polygon fill="#181818" points="455.76 1759.038 465.385 1761.125 460.656 1758.022 463.759 1753.292 455.76 1759.038" style="stroke:#181818;stroke-width:1"/></g><g id="link_cpo_canonicalLzChainId_cpi_canonicalLzChainId"><path id="cpo_canonicalLzChainId-cpi_canonicalLzChainId" fill="none" d="M637,617.3583 C637,638.9083 637,685.7783 637,707.2583" codeLine="231" style="stroke:#181818;stroke-width:5"/><polygon fill="#181818" points="637 712.058 641 703.058 637 707.058 633 703.058 637 712.058" style="stroke:#181818;stroke-width:5"/><polygon fill="#181818" points="637 612.518 633 621.518 637 617.518 641 621.518 637 612.518" style="stroke:#181818;stroke-width:5"/></g><g id="link_cpo_sidechainLzChainId_cpi_sidechainLzChainId"><path id="cpo_sidechainLzChainId-cpi_sidechainLzChainId" fill="none" d="M637,942.5283 C637,963.3783 637,1007.9583 637,1028.9583" codeLine="232" style="stroke:#181818;stroke-width:5"/><polygon fill="#181818" points="637 1033.888 641 1024.888 637 1028.888 633 1024.888 637 1033.888" style="stroke:#181818;stroke-width:5"/><polygon fill="#181818" points="637 937.608 633 946.608 637 942.608 641 946.608 637 937.608" style="stroke:#181818;stroke-width:5"/></g></g></svg>